<svg width="167" height="27" viewBox="0 0 167 27" fill="none" xmlns="http://www.w3.org/2000/svg">
<path d="M12.2142 3.85982C12.514 2.93955 13.816 2.93955 14.1158 3.85982L15.8669 9.23422C16.001 9.64585 16.3848 9.92443 16.8177 9.92443H22.4785C23.4478 9.92443 23.8502 11.1655 23.0652 11.7342L18.4903 15.0489C18.1388 15.3035 17.9918 15.7558 18.1262 16.1684L19.8748 21.5351C20.1748 22.4559 19.1215 23.2229 18.3373 22.6547L13.7517 19.3323C13.4017 19.0787 12.9283 19.0787 12.5783 19.3323L7.99273 22.6547C7.20847 23.2229 6.15518 22.4559 6.4552 21.5351L8.20377 16.1684C8.33823 15.7558 8.19115 15.3035 7.83969 15.0489L3.26482 11.7342C2.47981 11.1655 2.88214 9.92443 3.85153 9.92443H9.51229C9.94522 9.92443 10.329 9.64585 10.4631 9.23422L12.2142 3.85982Z" fill="#070707"/>
<path d="M47.3115 3.85958C47.6113 2.9393 48.9132 2.9393 49.2131 3.85958L50.9642 9.23398C51.0983 9.64561 51.4821 9.92418 51.915 9.92418H57.5757C58.5451 9.92418 58.9475 11.1652 58.1625 11.734L53.5876 15.0486C53.2361 15.3033 53.089 15.7555 53.2235 16.1682L54.9721 21.5349C55.2721 22.4557 54.2188 23.2227 53.4345 22.6544L48.849 19.3321C48.499 19.0784 48.0256 19.0784 47.6756 19.3321L43.09 22.6544C42.3058 23.2227 41.2525 22.4557 41.5525 21.5348L43.3011 16.1682C43.4355 15.7555 43.2884 15.3033 42.937 15.0486L38.3621 11.734C37.5771 11.1652 37.9794 9.92418 38.9488 9.92418H44.6096C45.0425 9.92418 45.4263 9.6456 45.5604 9.23398L47.3115 3.85958Z" fill="#070707"/>
<path d="M82.4086 3.85958C82.7085 2.9393 84.0104 2.9393 84.3103 3.85958L86.0613 9.23398C86.1955 9.64561 86.5792 9.92418 87.0122 9.92418H92.6729C93.6423 9.92418 94.0446 11.1652 93.2596 11.734L88.6848 15.0486C88.3333 15.3033 88.1862 15.7555 88.3207 16.1682L90.0692 21.5349C90.3693 22.4557 89.316 23.2227 88.5317 22.6544L83.9462 19.3321C83.5961 19.0784 83.1228 19.0784 82.7727 19.3321L78.1872 22.6544C77.4029 23.2227 76.3496 22.4557 76.6497 21.5348L78.3982 16.1682C78.5327 15.7555 78.3856 15.3033 78.0341 15.0486L73.4593 11.734C72.6743 11.1652 73.0766 9.92418 74.046 9.92418H79.7067C80.1397 9.92418 80.5234 9.6456 80.6576 9.23398L82.4086 3.85958Z" fill="#070707"/>
<path d="M117.506 3.85958C117.806 2.9393 119.108 2.9393 119.407 3.85958L121.159 9.23398C121.293 9.64561 121.676 9.92418 122.109 9.92418H127.77C128.739 9.92418 129.142 11.1652 128.357 11.734L123.782 15.0486C123.43 15.3033 123.283 15.7555 123.418 16.1682L125.166 21.5349C125.466 22.4557 124.413 23.2227 123.629 22.6544L119.043 19.3321C118.693 19.0784 118.22 19.0784 117.87 19.3321L113.284 22.6544C112.5 23.2227 111.447 22.4557 111.747 21.5348L113.495 16.1682C113.63 15.7555 113.483 15.3033 113.131 15.0486L108.556 11.734C107.771 11.1652 108.174 9.92418 109.143 9.92418H114.804C115.237 9.92418 115.621 9.6456 115.755 9.23398L117.506 3.85958Z" fill="#070707"/>
<path d="M152.603 3.85958C152.903 2.9393 154.205 2.9393 154.505 3.85958L156.256 9.23398C156.39 9.64561 156.774 9.92418 157.206 9.92418H162.867C163.837 9.92418 164.239 11.1652 163.454 11.734L158.879 15.0486C158.528 15.3033 158.381 15.7555 158.515 16.1682L160.264 21.5349C160.564 22.4557 159.51 23.2227 158.726 22.6544L154.141 19.3321C153.79 19.0784 153.317 19.0784 152.967 19.3321L148.382 22.6544C147.597 23.2227 146.544 22.4557 146.844 21.5348L148.593 16.1682C148.727 15.7555 148.58 15.3033 148.228 15.0486L143.654 11.734C142.869 11.1652 143.271 9.92418 144.24 9.92418H149.901C150.334 9.92418 150.718 9.6456 150.852 9.23398L152.603 3.85958Z" fill="#E5E5E5"/>
</svg>
